<?xml version="1.0" encoding="UTF-8" standalone="no"?>
<!-- Created with Inkscape (http://www.inkscape.org/) -->

<svg
   xmlns:dc="http://purl.org/dc/elements/1.1/"
   xmlns:cc="http://creativecommons.org/ns#"
   xmlns:rdf="http://www.w3.org/1999/02/22-rdf-syntax-ns#"
   xmlns:svg="http://www.w3.org/2000/svg"
   xmlns="http://www.w3.org/2000/svg"
   xmlns:sodipodi="http://sodipodi.sourceforge.net/DTD/sodipodi-0.dtd"
   xmlns:inkscape="http://www.inkscape.org/namespaces/inkscape"
   width="161.68213mm"
   height="180.26881mm"
   viewBox="0 0 161.68213 180.26881"
   version="1.1"
   id="svg8"
   inkscape:version="0.92.2 (5c3e80d, 2017-08-06)"
   sodipodi:docname="002-updated.svg"
   inkscape:export-filename="D:\Workspace\Projet\Boardgames\La Fortune aux Audacieux\V2\Images\002-updated.png"
   inkscape:export-xdpi="100"
   inkscape:export-ydpi="100">
  <defs
     id="defs2" />
  <sodipodi:namedview
     id="base"
     pagecolor="#ffffff"
     bordercolor="#666666"
     borderopacity="1.0"
     inkscape:pageopacity="0.0"
     inkscape:pageshadow="2"
     inkscape:zoom="0.98994949"
     inkscape:cx="241.8468"
     inkscape:cy="404.77369"
     inkscape:document-units="mm"
     inkscape:current-layer="g832"
     showgrid="false"
     fit-margin-top="0"
     fit-margin-left="0"
     fit-margin-right="0"
     fit-margin-bottom="0"
     inkscape:window-width="1920"
     inkscape:window-height="1017"
     inkscape:window-x="1912"
     inkscape:window-y="-8"
     inkscape:window-maximized="1" />
  <metadata
     id="metadata5">
    <rdf:RDF>
      <cc:Work
         rdf:about="">
        <dc:format>image/svg+xml</dc:format>
        <dc:type
           rdf:resource="http://purl.org/dc/dcmitype/StillImage" />
        <dc:title></dc:title>
      </cc:Work>
    </rdf:RDF>
  </metadata>
  <g
     inkscape:label="Layer 1"
     inkscape:groupmode="layer"
     id="layer1"
     transform="translate(-22.724416,-51.895355)">
    <g
       id="g832"
       transform="matrix(0.35208935,0,0,0.35208935,22.54862,51.895355)">
      <path
         id="path815"
         d="M 123.88672,404.74219 C 75.625,370.8125 46.8125,315.38281 46.8125,256.47266 46.8125,160.13281 123.15625,80.550781 218.5,75.621094 v 16.058594 c 0,10.265622 11.54688,16.414062 20.07031,10.585942 l 57.625,-39.417974 c 7.44532,-5.085937 7.44532,-16.085937 0.004,-21.175781 L 238.57031,2.25 C 236.41797,0.777344 233.91797,0 231.34375,0 224.26172,0 218.5,5.757812 218.5,12.835938 v 16.339843 c -39.83203,1.636719 -78.43359,13.644531 -112.07031,34.933594 -3.50391,2.21875 -4.54688,6.859375 -2.32813,10.363281 2.21485,3.507813 6.85938,4.546875 10.35938,2.328125 31.23437,-19.765625 67.05078,-30.96875 104.03125,-32.59375 V 60.566406 C 114.44922,65.464844 31.792969,151.26172 31.792969,256.47266 c 0,63.79687 31.199219,123.8164 83.453121,160.55468 8.99219,6.32032 -0.83203,19.38672 -9.28125,13.45313 C -7.75,350.61719 -15.964844,184.15234 91.085938,93.929688 94.257812,91.257812 94.660156,86.519531 91.988281,83.347656 89.316406,80.175781 84.578125,79.769531 81.40625,82.445312 -33.273438,179.09766 -24.320312,357.33594 97.332031,442.76953 c 8.085939,5.6836 19.226559,5.6836 27.667969,-1.0039 12.16797,-9.57422 11.54688,-28.1211 -1.11328,-37.02344 z M 233.51953,16.992188 285.07422,52.257812 233.51953,87.523438 Z m 0,0"
         inkscape:connector-curvature="0" />
      <path
         id="path817"
         d="m 362.80859,69.226562 c -15.46875,-10.867187 -36.92968,0.890626 -36.42578,19.667969 0.19922,7.394531 3.80078,14.085939 9.875,18.359379 48.26172,33.92968 77.07422,89.35547 77.07422,148.26953 0,96.33984 -76.34375,175.91797 -171.6875,180.84765 v -16.05468 c 0,-10.26563 -11.55078,-16.41407 -20.07031,-10.58594 l -57.625,39.41797 c -7.44922,5.08593 -7.44531,16.08203 -0.004,21.17578 62.95313,43.0625 59.46094,41.66797 64.85547,41.66797 7.08203,0 12.84375,-5.75782 12.84375,-12.83594 v -16.34766 c 121.28516,-4.92187 218.0625,-104.65234 218.0625,-227.28515 0,-74.04297 -36.22265,-143.6875 -96.89844,-186.296878 z M 226.625,495 175.07031,459.73828 226.625,424.47266 Z m 15.03125,-27.21094 v -16.36328 c 104.03516,-4.89453 186.69531,-90.6914 186.69531,-195.90234 0,-63.79688 -31.19922,-123.81641 -83.45312,-160.55469 -2.15625,-1.515625 -3.4336,-3.878906 -3.5,-6.480469 -0.17969,-6.539062 7.48047,-10.699219 12.78125,-6.972656 56.67578,39.804685 90.51172,104.851565 90.51172,174.007815 -0.004,113.62109 -90.40235,207.29687 -203.03516,212.26562 z m 0,0"
         inkscape:connector-curvature="0" />
      <path
         id="path819"
         d="m 194.30078,267.55078 -20.04687,-26.72656 c -17.39063,-23.19141 -54.17188,-13.58203 -58.25,14.92187 -1.23047,8.60547 0.96875,17.17188 6.18359,24.12891 l 36.69922,48.93359 c 13.22266,17.62891 38.59375,20.66016 55.59766,6.5586 l 118.21093,-98.02735 c 13.84766,-11.48046 15.76172,-31.97656 4.28125,-45.82421 -11.45312,-13.8086 -32.01172,-15.73047 -45.82422,-4.27735 z m 131.11328,-66.44922 c 6.17969,7.45313 5.15235,18.49219 -2.30468,24.67578 l -118.21094,98.02735 c -10.375,8.60156 -25.90235,6.78125 -33.9961,-4.00782 l -36.69921,-48.93359 c -2.8086,-3.74609 -3.99219,-8.35937 -3.32813,-12.99219 2.20703,-15.46484 22.03906,-20.46484 31.36328,-8.03515 l 24.77735,33.03906 c 2.55859,3.41016 7.48046,4.03125 10.80468,1.27344 l 102.91797,-85.34766 c 7.4375,-6.16797 18.50781,-5.13672 24.67578,2.30078 z m 0,0"
         inkscape:connector-curvature="0" />
    </g>
  </g>
</svg>
